<mxfile host="app.diagrams.net" agent="Mozilla/5.0 (Windows NT 10.0; Win64; x64) AppleWebKit/537.36 (KHTML, like Gecko) Chrome/134.0.0.0 Safari/537.36" version="26.1.1">
  <diagram name="Strona-1" id="1H4NagRdJRhZYwSiDzTk">
    <mxGraphModel dx="1050" dy="530" grid="1" gridSize="10" guides="1" tooltips="1" connect="1" arrows="1" fold="1" page="1" pageScale="1" pageWidth="827" pageHeight="1169" math="0" shadow="0">
      <root>
        <mxCell id="0" />
        <mxCell id="1" parent="0" />
        <mxCell id="VO1EDZUNtYDjx0lu9GIZ-2" value="" style="swimlane;startSize=0;" vertex="1" parent="1">
          <mxGeometry x="60" y="248" width="200" height="200" as="geometry" />
        </mxCell>
        <mxCell id="VO1EDZUNtYDjx0lu9GIZ-3" value="FRONTEND" style="text;html=1;align=center;verticalAlign=middle;resizable=0;points=[];autosize=1;strokeColor=none;fillColor=none;" vertex="1" parent="VO1EDZUNtYDjx0lu9GIZ-2">
          <mxGeometry x="55" y="8" width="90" height="30" as="geometry" />
        </mxCell>
        <mxCell id="VO1EDZUNtYDjx0lu9GIZ-4" value="" style="swimlane;startSize=0;" vertex="1" parent="1">
          <mxGeometry x="330" y="250" width="200" height="200" as="geometry" />
        </mxCell>
        <mxCell id="VO1EDZUNtYDjx0lu9GIZ-5" value="SERVER MAP" style="text;html=1;align=center;verticalAlign=middle;resizable=0;points=[];autosize=1;strokeColor=none;fillColor=none;" vertex="1" parent="1">
          <mxGeometry x="370" y="248" width="100" height="30" as="geometry" />
        </mxCell>
        <mxCell id="VO1EDZUNtYDjx0lu9GIZ-6" value="" style="swimlane;startSize=0;" vertex="1" parent="1">
          <mxGeometry x="580" y="250" width="200" height="200" as="geometry" />
        </mxCell>
        <mxCell id="VO1EDZUNtYDjx0lu9GIZ-7" value="BAZA DANYCH" style="text;html=1;align=center;verticalAlign=middle;resizable=0;points=[];autosize=1;strokeColor=none;fillColor=none;" vertex="1" parent="1">
          <mxGeometry x="635" y="268" width="110" height="30" as="geometry" />
        </mxCell>
        <mxCell id="VO1EDZUNtYDjx0lu9GIZ-9" value="" style="endArrow=classic;startArrow=classic;html=1;rounded=0;entryX=0;entryY=0.5;entryDx=0;entryDy=0;" edge="1" parent="1" target="VO1EDZUNtYDjx0lu9GIZ-6">
          <mxGeometry width="50" height="50" relative="1" as="geometry">
            <mxPoint x="530" y="350" as="sourcePoint" />
            <mxPoint x="440" y="350" as="targetPoint" />
            <Array as="points" />
          </mxGeometry>
        </mxCell>
        <mxCell id="VO1EDZUNtYDjx0lu9GIZ-10" value="5432" style="text;html=1;align=center;verticalAlign=middle;resizable=0;points=[];autosize=1;strokeColor=none;fillColor=none;" vertex="1" parent="1">
          <mxGeometry x="530" y="320" width="50" height="30" as="geometry" />
        </mxCell>
        <mxCell id="VO1EDZUNtYDjx0lu9GIZ-12" value="" style="endArrow=classic;startArrow=classic;html=1;rounded=0;exitX=1;exitY=0.5;exitDx=0;exitDy=0;" edge="1" parent="1" source="VO1EDZUNtYDjx0lu9GIZ-2">
          <mxGeometry width="50" height="50" relative="1" as="geometry">
            <mxPoint x="390" y="400" as="sourcePoint" />
            <mxPoint x="330" y="350" as="targetPoint" />
          </mxGeometry>
        </mxCell>
        <mxCell id="VO1EDZUNtYDjx0lu9GIZ-14" value="9090" style="text;html=1;align=center;verticalAlign=middle;resizable=0;points=[];autosize=1;strokeColor=none;fillColor=none;" vertex="1" parent="1">
          <mxGeometry x="265" y="318" width="50" height="30" as="geometry" />
        </mxCell>
      </root>
    </mxGraphModel>
  </diagram>
</mxfile>
